<svg width="34" height="33" viewBox="0 0 34 33" fill="none" xmlns="http://www.w3.org/2000/svg">
<path d="M17.5402 0.270814C16.212 0.275085 15.2912 0.392106 14.1782 0.584294C10.8914 1.15659 10.2926 2.3584 10.2926 4.57325V7.95831H17.9801V9.66665H6.28483C4.03325 9.66665 2.06269 10.7275 1.43829 13.2704C0.732748 16.1891 0.701144 18.017 1.43829 21.0646C1.99777 23.3376 3.23033 25.0416 5.48277 25.0416H8.5851V20.682C8.5851 18.1485 10.8794 15.6458 13.5085 15.6458H19.6893C21.8443 15.6458 23.9601 14.0554 23.9601 11.9071V4.57325C23.9601 2.48994 22.4576 0.931939 20.3572 0.582585C20.4093 0.57746 18.8573 0.265689 17.5402 0.270814ZM13.283 3.68748C13.9843 3.68748 14.5643 4.26575 14.5643 4.97044C14.5643 5.68196 13.9843 6.24998 13.283 6.24998C12.5681 6.24998 12.0018 5.68281 12.0018 4.97044C12.0018 4.26831 12.5681 3.68748 13.283 3.68748Z" fill="#0277BD"/>
<path d="M16.7125 32.7291C18.0407 32.7249 18.9615 32.6079 20.0745 32.4157C23.3613 31.8434 23.9601 30.6416 23.9601 28.4267V25.0416H16.2726V23.3333H27.9687C30.2203 23.3333 32.1908 22.2724 32.8152 19.7296C33.5208 16.8109 33.5524 14.983 32.8152 11.9353C32.2549 9.66238 31.0223 7.95831 28.7699 7.95831H25.6676V12.318C25.6676 14.8514 23.3733 17.3541 20.7442 17.3541H14.5634C12.4084 17.3541 10.2926 18.9446 10.2926 21.0928V28.4267C10.2926 30.51 11.7951 32.068 13.8955 32.4174C13.8434 32.4225 15.3954 32.7343 16.7125 32.7291ZM20.9705 29.3125C20.2692 29.3125 19.6893 28.7342 19.6893 28.0295C19.6893 27.318 20.2692 26.75 20.9705 26.75C21.6855 26.75 22.2518 27.3171 22.2518 28.0295C22.2518 28.7316 21.6846 29.3125 20.9705 29.3125Z" fill="#FFC107"/>
</svg>
